<mxfile host="app.diagrams.net" modified="2020-12-10T20:56:25.795Z" agent="5.0 (X11; Linux x86_64) AppleWebKit/537.36 (KHTML, like Gecko) Chrome/87.0.4280.66 Safari/537.36" etag="18YAyMIU5JGjtEP65_sD" version="14.0.0" type="github">
  <diagram id="UHghU3xjR6egs1E34Lag" name="Page-1">
    <mxGraphModel dx="1602" dy="1056" grid="0" gridSize="10" guides="1" tooltips="1" connect="1" arrows="1" fold="1" page="1" pageScale="1" pageWidth="1654" pageHeight="1169" math="0" shadow="0">
      <root>
        <mxCell id="0" />
        <mxCell id="1" parent="0" />
        <mxCell id="RUJBzZxRGvogXbDTomMS-75" value="" style="rounded=0;whiteSpace=wrap;html=1;fontSize=16;align=center;dashed=1;" parent="1" vertex="1">
          <mxGeometry x="1696" y="859" width="1571" height="262" as="geometry" />
        </mxCell>
        <mxCell id="RUJBzZxRGvogXbDTomMS-1" value="&lt;b&gt;&lt;font style=&quot;font-size: 20px&quot;&gt;O GSegID&lt;/font&gt;&lt;/b&gt;" style="text;html=1;strokeColor=none;fillColor=none;align=center;verticalAlign=middle;whiteSpace=wrap;rounded=0;fontSize=16;" parent="1" vertex="1">
          <mxGeometry x="93" y="21" width="112" height="20" as="geometry" />
        </mxCell>
        <mxCell id="RUJBzZxRGvogXbDTomMS-2" value="&lt;ul&gt;&lt;li&gt;Captar e gerenciar dados de todos os clientes da companhia&lt;/li&gt;&lt;li&gt;Autenticação e autorização de cada usuário&lt;/li&gt;&lt;li&gt;Fornece informações para outros times / produtos&lt;/li&gt;&lt;li&gt;Atende a outras empresas do grupo&lt;/li&gt;&lt;/ul&gt;" style="text;html=1;strokeColor=none;fillColor=none;align=left;verticalAlign=middle;whiteSpace=wrap;rounded=0;fontSize=16;" parent="1" vertex="1">
          <mxGeometry x="71" y="77" width="524" height="20" as="geometry" />
        </mxCell>
        <mxCell id="RUJBzZxRGvogXbDTomMS-3" value="&lt;b&gt;&lt;font style=&quot;font-size: 20px&quot;&gt;Requisitos Não Funcionais&lt;/font&gt;&lt;/b&gt;" style="text;html=1;strokeColor=none;fillColor=none;align=center;verticalAlign=middle;whiteSpace=wrap;rounded=0;fontSize=16;" parent="1" vertex="1">
          <mxGeometry x="619" y="21" width="262" height="20" as="geometry" />
        </mxCell>
        <mxCell id="RUJBzZxRGvogXbDTomMS-4" value="&lt;ul&gt;&lt;li&gt;Cerca de 50 milhões de acessos diários&lt;/li&gt;&lt;li&gt;Transações com mais de 4K / req por segundo&lt;/li&gt;&lt;li&gt;Aplicações podem gerar 300K / req por segundo&lt;/li&gt;&lt;li&gt;A nova arquitetura precisa além de salvar o novo modelo de dados no banco não relacional (Mongo), também existe a necessidade de salvar o request completo, para processamento do Consumer/Sync&lt;/li&gt;&lt;/ul&gt;" style="text;html=1;strokeColor=none;fillColor=none;align=left;verticalAlign=middle;whiteSpace=wrap;rounded=0;fontSize=16;" parent="1" vertex="1">
          <mxGeometry x="619" y="60" width="910" height="94" as="geometry" />
        </mxCell>
        <mxCell id="RUJBzZxRGvogXbDTomMS-5" value="Arquitetura atual do sistema de registro tem um &lt;b&gt;Frontend&lt;/b&gt; escrito em angular que realiza uma pré validação no &lt;b&gt;Monolítico API&lt;/b&gt;, que foi uma primeira tentativa de migrar o monolítico core.&amp;nbsp;&lt;br&gt;&lt;br&gt;Devido a muitas regras de negócio que existiam no Core, a API precisou conviver e validar dados através do Core.&lt;br&gt;&lt;br&gt;Assim como o&amp;nbsp;&lt;b&gt;Frontend&lt;/b&gt;&amp;nbsp;ainda necessita realizar validações nas regras do core." style="text;html=1;strokeColor=none;fillColor=none;align=left;verticalAlign=middle;whiteSpace=wrap;rounded=0;fontSize=16;" parent="1" vertex="1">
          <mxGeometry x="93" y="193" width="548" height="200" as="geometry" />
        </mxCell>
        <mxCell id="RUJBzZxRGvogXbDTomMS-15" value="&lt;b style=&quot;font-size: 16px&quot;&gt;Status Atual da Arquitetura&lt;/b&gt;" style="text;html=1;strokeColor=none;fillColor=none;align=center;verticalAlign=middle;whiteSpace=wrap;rounded=0;fontSize=16;" parent="1" vertex="1">
          <mxGeometry x="179.5" y="782" width="218" height="20" as="geometry" />
        </mxCell>
        <mxCell id="RUJBzZxRGvogXbDTomMS-16" value="&lt;ul&gt;&lt;li&gt;cadastra 200 usuários por segundo&lt;/li&gt;&lt;li&gt;Possui dois grande monolíticos&lt;/li&gt;&lt;li&gt;Bibliotecas antigas e difíceis de atualizar&lt;/li&gt;&lt;li&gt;Alto risco de deploy&lt;/li&gt;&lt;li&gt;Merges numerosos e perigosos&lt;/li&gt;&lt;/ul&gt;" style="text;html=1;strokeColor=none;fillColor=none;align=left;verticalAlign=middle;whiteSpace=wrap;rounded=0;fontSize=16;" parent="1" vertex="1">
          <mxGeometry x="160.5" y="802" width="345" height="106" as="geometry" />
        </mxCell>
        <mxCell id="RUJBzZxRGvogXbDTomMS-17" value="" style="group" parent="1" vertex="1" connectable="0">
          <mxGeometry x="118" y="453" width="430" height="288" as="geometry" />
        </mxCell>
        <mxCell id="RUJBzZxRGvogXbDTomMS-6" value="Frontend&lt;br&gt;Angular" style="shape=process;whiteSpace=wrap;html=1;backgroundOutline=1;fontSize=16;" parent="RUJBzZxRGvogXbDTomMS-17" vertex="1">
          <mxGeometry x="155" width="120" height="60" as="geometry" />
        </mxCell>
        <mxCell id="RUJBzZxRGvogXbDTomMS-7" value="Monolítico CORE&lt;br&gt;(Java)" style="rounded=0;whiteSpace=wrap;html=1;fontSize=16;" parent="RUJBzZxRGvogXbDTomMS-17" vertex="1">
          <mxGeometry y="101" width="155" height="65" as="geometry" />
        </mxCell>
        <mxCell id="RUJBzZxRGvogXbDTomMS-11" style="edgeStyle=orthogonalEdgeStyle;rounded=0;orthogonalLoop=1;jettySize=auto;html=1;exitX=0;exitY=0.5;exitDx=0;exitDy=0;fontSize=16;" parent="RUJBzZxRGvogXbDTomMS-17" source="RUJBzZxRGvogXbDTomMS-6" target="RUJBzZxRGvogXbDTomMS-7" edge="1">
          <mxGeometry relative="1" as="geometry" />
        </mxCell>
        <mxCell id="RUJBzZxRGvogXbDTomMS-8" value="Monolítico API&lt;br&gt;(Java Spring)" style="rounded=0;whiteSpace=wrap;html=1;fontSize=16;" parent="RUJBzZxRGvogXbDTomMS-17" vertex="1">
          <mxGeometry x="275" y="101" width="155" height="65" as="geometry" />
        </mxCell>
        <mxCell id="RUJBzZxRGvogXbDTomMS-10" style="edgeStyle=orthogonalEdgeStyle;rounded=0;orthogonalLoop=1;jettySize=auto;html=1;entryX=0.5;entryY=0;entryDx=0;entryDy=0;fontSize=16;" parent="RUJBzZxRGvogXbDTomMS-17" source="RUJBzZxRGvogXbDTomMS-6" target="RUJBzZxRGvogXbDTomMS-8" edge="1">
          <mxGeometry relative="1" as="geometry">
            <Array as="points">
              <mxPoint x="353" y="30" />
            </Array>
          </mxGeometry>
        </mxCell>
        <mxCell id="RUJBzZxRGvogXbDTomMS-14" style="edgeStyle=orthogonalEdgeStyle;rounded=0;orthogonalLoop=1;jettySize=auto;html=1;exitX=1;exitY=0.5;exitDx=0;exitDy=0;entryX=0;entryY=0.5;entryDx=0;entryDy=0;fontSize=16;" parent="RUJBzZxRGvogXbDTomMS-17" source="RUJBzZxRGvogXbDTomMS-7" target="RUJBzZxRGvogXbDTomMS-8" edge="1">
          <mxGeometry relative="1" as="geometry" />
        </mxCell>
        <mxCell id="RUJBzZxRGvogXbDTomMS-9" value="Banco de Dados Oracle" style="shape=cylinder3;whiteSpace=wrap;html=1;boundedLbl=1;backgroundOutline=1;size=15;fontSize=16;" parent="RUJBzZxRGvogXbDTomMS-17" vertex="1">
          <mxGeometry x="175.5" y="190" width="79" height="98" as="geometry" />
        </mxCell>
        <mxCell id="RUJBzZxRGvogXbDTomMS-12" style="edgeStyle=orthogonalEdgeStyle;rounded=0;orthogonalLoop=1;jettySize=auto;html=1;exitX=0.5;exitY=1;exitDx=0;exitDy=0;entryX=0;entryY=0.5;entryDx=0;entryDy=0;entryPerimeter=0;fontSize=16;" parent="RUJBzZxRGvogXbDTomMS-17" source="RUJBzZxRGvogXbDTomMS-7" target="RUJBzZxRGvogXbDTomMS-9" edge="1">
          <mxGeometry relative="1" as="geometry" />
        </mxCell>
        <mxCell id="RUJBzZxRGvogXbDTomMS-13" style="edgeStyle=orthogonalEdgeStyle;rounded=0;orthogonalLoop=1;jettySize=auto;html=1;entryX=1;entryY=0.5;entryDx=0;entryDy=0;entryPerimeter=0;fontSize=16;" parent="RUJBzZxRGvogXbDTomMS-17" source="RUJBzZxRGvogXbDTomMS-8" target="RUJBzZxRGvogXbDTomMS-9" edge="1">
          <mxGeometry relative="1" as="geometry">
            <Array as="points">
              <mxPoint x="352" y="239" />
            </Array>
          </mxGeometry>
        </mxCell>
        <mxCell id="RUJBzZxRGvogXbDTomMS-40" value="" style="group" parent="1" vertex="1" connectable="0">
          <mxGeometry x="832" y="457" width="430" height="288" as="geometry" />
        </mxCell>
        <mxCell id="RUJBzZxRGvogXbDTomMS-41" value="Frontend&lt;br&gt;Angular" style="shape=process;whiteSpace=wrap;html=1;backgroundOutline=1;fontSize=16;" parent="RUJBzZxRGvogXbDTomMS-40" vertex="1">
          <mxGeometry x="155" width="120" height="60" as="geometry" />
        </mxCell>
        <mxCell id="RUJBzZxRGvogXbDTomMS-42" value="Monolítico CORE&lt;br&gt;(Java)" style="rounded=0;whiteSpace=wrap;html=1;fontSize=16;" parent="RUJBzZxRGvogXbDTomMS-40" vertex="1">
          <mxGeometry y="101" width="155" height="65" as="geometry" />
        </mxCell>
        <mxCell id="RUJBzZxRGvogXbDTomMS-43" style="edgeStyle=orthogonalEdgeStyle;rounded=0;orthogonalLoop=1;jettySize=auto;html=1;exitX=0;exitY=0.5;exitDx=0;exitDy=0;fontSize=16;" parent="RUJBzZxRGvogXbDTomMS-40" source="RUJBzZxRGvogXbDTomMS-41" target="RUJBzZxRGvogXbDTomMS-42" edge="1">
          <mxGeometry relative="1" as="geometry" />
        </mxCell>
        <mxCell id="RUJBzZxRGvogXbDTomMS-44" value="Monolítico API&lt;br&gt;(Java Spring)" style="rounded=0;whiteSpace=wrap;html=1;fontSize=16;" parent="RUJBzZxRGvogXbDTomMS-40" vertex="1">
          <mxGeometry x="275" y="101" width="155" height="65" as="geometry" />
        </mxCell>
        <mxCell id="RUJBzZxRGvogXbDTomMS-47" value="Banco de Dados Oracle" style="shape=cylinder3;whiteSpace=wrap;html=1;boundedLbl=1;backgroundOutline=1;size=15;fontSize=16;" parent="RUJBzZxRGvogXbDTomMS-40" vertex="1">
          <mxGeometry x="175.5" y="190" width="79" height="98" as="geometry" />
        </mxCell>
        <mxCell id="RUJBzZxRGvogXbDTomMS-48" style="edgeStyle=orthogonalEdgeStyle;rounded=0;orthogonalLoop=1;jettySize=auto;html=1;exitX=0.5;exitY=1;exitDx=0;exitDy=0;entryX=0;entryY=0.5;entryDx=0;entryDy=0;entryPerimeter=0;fontSize=16;" parent="RUJBzZxRGvogXbDTomMS-40" source="RUJBzZxRGvogXbDTomMS-42" target="RUJBzZxRGvogXbDTomMS-47" edge="1">
          <mxGeometry relative="1" as="geometry" />
        </mxCell>
        <mxCell id="RUJBzZxRGvogXbDTomMS-49" style="edgeStyle=orthogonalEdgeStyle;rounded=0;orthogonalLoop=1;jettySize=auto;html=1;entryX=1;entryY=0.5;entryDx=0;entryDy=0;entryPerimeter=0;fontSize=16;" parent="RUJBzZxRGvogXbDTomMS-40" source="RUJBzZxRGvogXbDTomMS-44" target="RUJBzZxRGvogXbDTomMS-47" edge="1">
          <mxGeometry relative="1" as="geometry">
            <Array as="points">
              <mxPoint x="352" y="239" />
            </Array>
          </mxGeometry>
        </mxCell>
        <mxCell id="RUJBzZxRGvogXbDTomMS-50" value="&lt;b style=&quot;font-size: 20px&quot;&gt;A nova arquitetura tem como requisitos para MVP:&lt;/b&gt;&lt;br&gt;&lt;ul&gt;&lt;li&gt;Cadastrar 19K usuários por segundos.&lt;/li&gt;&lt;li&gt;Deploy fácil e com &lt;b&gt;cache &lt;/b&gt;para tempo de intermitência&lt;/li&gt;&lt;li&gt;Mecanismos de &lt;b&gt;consumer &lt;/b&gt;e &lt;b&gt;sync &lt;/b&gt;de bancos já implementado por um time de arquitetura estrutural.&amp;nbsp;&lt;/li&gt;&lt;/ul&gt;&lt;div style=&quot;font-size: 20px&quot;&gt;&lt;b&gt;&lt;font style=&quot;font-size: 20px&quot;&gt;Limitações conhecidas:&lt;/font&gt;&lt;/b&gt;&lt;/div&gt;&lt;div style=&quot;font-size: 20px&quot;&gt;&lt;ul&gt;&lt;li&gt;O novo banco de dados corporativo, atualmente suporte 10K / req por segundo.&lt;/li&gt;&lt;/ul&gt;&lt;/div&gt;" style="text;html=1;strokeColor=none;fillColor=none;align=left;verticalAlign=middle;whiteSpace=wrap;rounded=0;fontSize=16;" parent="1" vertex="1">
          <mxGeometry x="793" y="187" width="548" height="258" as="geometry" />
        </mxCell>
        <mxCell id="RUJBzZxRGvogXbDTomMS-74" style="edgeStyle=orthogonalEdgeStyle;rounded=0;orthogonalLoop=1;jettySize=auto;html=1;entryX=0;entryY=0.25;entryDx=0;entryDy=0;fontSize=16;" parent="1" source="RUJBzZxRGvogXbDTomMS-53" target="RUJBzZxRGvogXbDTomMS-61" edge="1">
          <mxGeometry relative="1" as="geometry" />
        </mxCell>
        <mxCell id="RUJBzZxRGvogXbDTomMS-53" value="" style="shape=image;verticalLabelPosition=bottom;labelBackgroundColor=#ffffff;verticalAlign=top;aspect=fixed;imageAspect=0;image=https://access.redhat.com/sites/default/files/nginx-icon-outline-hex-rgb-266x302_0.png;" parent="1" vertex="1">
          <mxGeometry x="1422" y="556" width="60" height="68.12" as="geometry" />
        </mxCell>
        <mxCell id="RUJBzZxRGvogXbDTomMS-55" style="edgeStyle=orthogonalEdgeStyle;rounded=0;orthogonalLoop=1;jettySize=auto;html=1;entryX=0.5;entryY=1;entryDx=0;entryDy=0;entryPerimeter=0;fontSize=16;" parent="1" source="RUJBzZxRGvogXbDTomMS-54" target="RUJBzZxRGvogXbDTomMS-47" edge="1">
          <mxGeometry relative="1" as="geometry" />
        </mxCell>
        <mxCell id="RUJBzZxRGvogXbDTomMS-56" style="edgeStyle=orthogonalEdgeStyle;rounded=0;orthogonalLoop=1;jettySize=auto;html=1;fontSize=16;entryX=0;entryY=0.5;entryDx=0;entryDy=0;" parent="1" source="RUJBzZxRGvogXbDTomMS-54" target="RUJBzZxRGvogXbDTomMS-59" edge="1">
          <mxGeometry relative="1" as="geometry">
            <mxPoint x="2195" y="1042" as="targetPoint" />
            <Array as="points">
              <mxPoint x="2095" y="985" />
              <mxPoint x="2095" y="1003" />
            </Array>
          </mxGeometry>
        </mxCell>
        <mxCell id="RUJBzZxRGvogXbDTomMS-54" value="Consumer e Sync" style="rounded=0;whiteSpace=wrap;html=1;fontSize=16;align=center;" parent="1" vertex="1">
          <mxGeometry x="1296" y="955" width="162" height="60" as="geometry" />
        </mxCell>
        <mxCell id="RUJBzZxRGvogXbDTomMS-60" value="" style="group" parent="1" vertex="1" connectable="0">
          <mxGeometry x="2296" y="906" width="114" height="156" as="geometry" />
        </mxCell>
        <mxCell id="RUJBzZxRGvogXbDTomMS-58" value="" style="shape=cylinder;whiteSpace=wrap;html=1;boundedLbl=1;backgroundOutline=1;fontSize=16;align=center;" parent="RUJBzZxRGvogXbDTomMS-60" vertex="1">
          <mxGeometry width="114" height="156" as="geometry" />
        </mxCell>
        <mxCell id="RUJBzZxRGvogXbDTomMS-59" value="" style="shape=image;verticalLabelPosition=bottom;labelBackgroundColor=#ffffff;verticalAlign=top;aspect=fixed;imageAspect=0;image=https://miro.medium.com/max/780/0*vKDMQXxrZJyWWw0I.;" parent="RUJBzZxRGvogXbDTomMS-60" vertex="1">
          <mxGeometry x="1.2282580645161825" y="64.6829268292683" width="111.55083870967741" height="58.34593548387097" as="geometry" />
        </mxCell>
        <mxCell id="RUJBzZxRGvogXbDTomMS-61" value="" style="rounded=0;whiteSpace=wrap;html=1;fontSize=16;align=center;dashed=1;" parent="1" vertex="1">
          <mxGeometry x="1703" y="32" width="1571" height="766" as="geometry" />
        </mxCell>
        <mxCell id="RUJBzZxRGvogXbDTomMS-72" style="edgeStyle=orthogonalEdgeStyle;rounded=0;orthogonalLoop=1;jettySize=auto;html=1;fontSize=16;" parent="1" source="RUJBzZxRGvogXbDTomMS-41" target="RUJBzZxRGvogXbDTomMS-53" edge="1">
          <mxGeometry relative="1" as="geometry" />
        </mxCell>
        <mxCell id="RUJBzZxRGvogXbDTomMS-73" style="edgeStyle=orthogonalEdgeStyle;rounded=0;orthogonalLoop=1;jettySize=auto;html=1;fontSize=16;" parent="1" source="RUJBzZxRGvogXbDTomMS-44" edge="1">
          <mxGeometry relative="1" as="geometry">
            <mxPoint x="1420" y="590.5" as="targetPoint" />
          </mxGeometry>
        </mxCell>
        <mxCell id="RUJBzZxRGvogXbDTomMS-76" value="" style="group" parent="1" vertex="1" connectable="0">
          <mxGeometry x="2424" y="913" width="114" height="156" as="geometry" />
        </mxCell>
        <mxCell id="RUJBzZxRGvogXbDTomMS-77" value="" style="shape=cylinder;whiteSpace=wrap;html=1;boundedLbl=1;backgroundOutline=1;fontSize=16;align=center;" parent="RUJBzZxRGvogXbDTomMS-76" vertex="1">
          <mxGeometry y="-3" width="114" height="156" as="geometry" />
        </mxCell>
        <mxCell id="RUJBzZxRGvogXbDTomMS-78" value="" style="shape=image;verticalLabelPosition=bottom;labelBackgroundColor=#ffffff;verticalAlign=top;aspect=fixed;imageAspect=0;image=https://miro.medium.com/max/780/0*vKDMQXxrZJyWWw0I.;" parent="RUJBzZxRGvogXbDTomMS-76" vertex="1">
          <mxGeometry x="1.2282580645161825" y="61.6829268292683" width="111.55083870967741" height="58.34593548387097" as="geometry" />
        </mxCell>
        <mxCell id="RUJBzZxRGvogXbDTomMS-79" value="" style="group" parent="1" vertex="1" connectable="0">
          <mxGeometry x="2552" y="911" width="114" height="156" as="geometry" />
        </mxCell>
        <mxCell id="RUJBzZxRGvogXbDTomMS-80" value="" style="shape=cylinder;whiteSpace=wrap;html=1;boundedLbl=1;backgroundOutline=1;fontSize=16;align=center;" parent="RUJBzZxRGvogXbDTomMS-79" vertex="1">
          <mxGeometry width="114" height="156" as="geometry" />
        </mxCell>
        <mxCell id="RUJBzZxRGvogXbDTomMS-81" value="" style="shape=image;verticalLabelPosition=bottom;labelBackgroundColor=#ffffff;verticalAlign=top;aspect=fixed;imageAspect=0;image=https://miro.medium.com/max/780/0*vKDMQXxrZJyWWw0I.;" parent="RUJBzZxRGvogXbDTomMS-79" vertex="1">
          <mxGeometry x="1.2282580645161825" y="64.6829268292683" width="111.55083870967741" height="58.34593548387097" as="geometry" />
        </mxCell>
      </root>
    </mxGraphModel>
  </diagram>
</mxfile>
